<svg xmlns="http://www.w3.org/2000/svg" viewBox="0 0 1280 640" font-family="'Cascadia Code','JetBrains Mono',Consolas,'Courier New',monospace" role="img" aria-label="gsoc@katana: ~/fs25/sound-overhaul terminal showcase"><defs><clipPath id="win"><rect x="24" y="24" width="1232" height="592" rx="12"/></clipPath></defs><rect x="0" y="0" width="1280" height="640" fill="#010409"/>
  <rect x="24" y="24" width="1232" height="592" rx="12" fill="#0d1117" stroke="#30363d" stroke-width="1.5"/>
  <g clip-path="url(#win)"><rect x="24" y="24" width="1232" height="46" fill="#161b22"/>
    <line x1="24" y1="70" x2="1256" y2="70" stroke="#30363d" stroke-width="1"/></g>
  <circle cx="52" cy="47" r="7" fill="#ff5f56"/><circle cx="76" cy="47" r="7" fill="#febc2e"/>
  <circle cx="100" cy="47" r="7" fill="#27c93f"/>
  <text x="640" y="52" fill="#8b949e" font-size="16" text-anchor="middle">gsoc@katana: ~/fs25/sound-overhaul</text>
  <text x="1236" y="52" fill="#6e7681" font-size="15" text-anchor="end">sound-overhaul v0.1.0</text><text x="56" y="118" font-size="19"><tspan fill="#3fb950">gsoc@katana</tspan><tspan fill="#8b949e">:</tspan><tspan fill="#58a6ff">~/fs25/sound-overhaul</tspan><tspan fill="#8b949e">$ </tspan><tspan fill="#e6edf3">sound-overhaul --load</tspan></text><text x="56" y="164" fill="#c9d1d9" font-size="18">&#9656; engine sound banks</text><rect x="640" y="147" width="110" height="24" rx="5" fill="#238636"/><text x="695.0" y="164" fill="#e6edf3" text-anchor="middle" font-size="14" font-weight="700">remapped</text><text x="56" y="200" fill="#c9d1d9" font-size="18">&#9656; seasonal ambience</text><text x="640" y="200" fill="#39c5cf" font-size="18">spring &#8594; winter</text><text x="56" y="236" fill="#c9d1d9" font-size="18">&#9656; weather layer</text><text x="640" y="236" fill="#39c5cf" font-size="18">rain &#183; wind &#183; storm</text><text x="56" y="272" fill="#c9d1d9" font-size="18">&#9656; missing samples</text><text x="640" y="272" fill="#6e7681" font-size="18">vanilla fallback</text><text x="56" y="322" fill="#8b949e" font-size="15" letter-spacing="1">// the field should sound like the season</text><text x="56" y="384" font-size="34" font-weight="800"><tspan fill="#f85149">vanilla</tspan><tspan fill="#6e7681" font-size="25">  &#9472;&#9472;&#9654;  </tspan><tspan fill="#3fb950">alive</tspan><tspan fill="#8b949e" font-size="18" font-weight="600">  the soundscape</tspan></text><text x="56" y="436" font-size="19"><tspan fill="#3fb950" font-weight="700">&#10003; engine-accurate  &#183;  seasonal  &#183;  transparent fallback</tspan></text><text x="56" y="466" font-size="16" fill="#6e7681">early build (v0.1) &#8212; CC0 / original samples only.</text><text x="56" y="512" font-size="19"><tspan fill="#3fb950">gsoc@katana</tspan><tspan fill="#8b949e">:</tspan><tspan fill="#58a6ff">~/fs25/sound-overhaul</tspan><tspan fill="#8b949e">$ </tspan></text><rect x="470" y="497" width="11" height="20" fill="#3fb950"/><line x1="24" y1="566" x2="1256" y2="566" stroke="#30363d" stroke-width="1"/><text x="56" y="596" font-size="15" fill="#6e7681">GPLv3 &#183; FS25 &#183; audio &#183; vanilla-safe fallback</text><text x="1200" y="596" font-size="15" fill="#d29922" text-anchor="end" letter-spacing="0.5">keilerhirsch</text><rect x="1211" y="582" width="10" height="16" fill="#3fb950"/></svg>